<svg width="19" height="19" viewBox="0 0 19 19" fill="none" xmlns="http://www.w3.org/2000/svg">
<path fill-rule="evenodd" clip-rule="evenodd" d="M17.4167 13.4583V16.625C17.4167 17.4995 16.7078 18.2083 15.8333 18.2083H3.16666C2.29221 18.2083 1.58333 17.4995 1.58333 16.625V13.4583H4.97106L5.40185 14.7507C5.61736 15.3972 6.22241 15.8333 6.90393 15.8333H12.1774C12.7771 15.8333 13.3254 15.4945 13.5936 14.9581L14.3434 13.4583H17.4167Z" fill="#C8C8C8"/>
<path opacity="0.3" fill-rule="evenodd" clip-rule="evenodd" d="M2.02864 11.875L4.69184 7.14043C4.97228 6.64187 5.49982 6.33334 6.07184 6.33334H12.9282C13.5002 6.33334 14.0277 6.64187 14.3081 7.14043L16.9713 11.875H14.3434C13.7437 11.875 13.1955 12.2138 12.9273 12.7503L12.1774 14.25H6.90393L6.47314 12.9576C6.25763 12.3111 5.65258 11.875 4.97106 11.875H2.02864Z" fill="#C8C8C8"/>
<path d="M11.7859 2.24098L10.2371 2.24098V0.651571C10.2371 0.432958 10.0598 0.255737 9.84123 0.255737L9.03112 0.255737C8.8125 0.255737 8.63528 0.432958 8.63528 0.651571V2.24098H7.08641C6.8678 2.24098 6.69058 2.4182 6.69058 2.63681C6.69058 2.73047 6.72379 2.8211 6.78431 2.89259L9.13407 5.6679C9.27534 5.83475 9.5251 5.85548 9.69195 5.71422C9.70864 5.70009 9.72414 5.6846 9.73827 5.6679L12.088 2.89259C12.2293 2.72574 12.2086 2.47597 12.0417 2.33471C11.9702 2.27419 11.8796 2.24098 11.7859 2.24098Z" fill="#C8C8C8"/>
</svg>
