<svg width="28" height="28" viewBox="0 0 28 28" fill="none" xmlns="http://www.w3.org/2000/svg">
<path opacity="0.3" fill-rule="evenodd" clip-rule="evenodd" d="M11.2206 5.83334L10.1912 8.16668H3.5C2.85567 8.16668 2.33333 7.64434 2.33333 7.00001C2.33333 6.35568 2.85567 5.83334 3.5 5.83334H11.2206ZM16.7794 5.83334H24.5C25.1443 5.83334 25.6667 6.35568 25.6667 7.00001C25.6667 7.64434 25.1443 8.16668 24.5 8.16668H17.8088L16.7794 5.83334ZM7.10294 15.1667L6.07353 17.5H3.5C2.85567 17.5 2.33333 16.9777 2.33333 16.3333C2.33333 15.689 2.85567 15.1667 3.5 15.1667H7.10294ZM20.8971 15.1667H24.5C25.1443 15.1667 25.6667 15.689 25.6667 16.3333C25.6667 16.9777 25.1443 17.5 24.5 17.5H21.9265L20.8971 15.1667ZM9.16177 10.5L8.13235 12.8333H3.5C2.85567 12.8333 2.33333 12.311 2.33333 11.6667C2.33333 11.0223 2.85567 10.5 3.5 10.5H9.16177ZM18.8382 10.5H24.5C25.1443 10.5 25.6667 11.0223 25.6667 11.6667C25.6667 12.311 25.1443 12.8333 24.5 12.8333H19.8676L18.8382 10.5ZM5.04412 19.8333L4.01471 22.1667H3.5C2.85567 22.1667 2.33333 21.6443 2.33333 21C2.33333 20.3557 2.85567 19.8333 3.5 19.8333H5.04412ZM22.9559 19.8333H24.5C25.1443 19.8333 25.6667 20.3557 25.6667 21C25.6667 21.6443 25.1443 22.1667 24.5 22.1667H23.9853L22.9559 19.8333Z" fill="#BEBEBE"/>
<path fill-rule="evenodd" clip-rule="evenodd" d="M12.8847 6.13199H15.1737L21.5833 22.1667H18.6667L17.1687 17.598H10.7217L8.75 22.1667H5.83333L12.8847 6.13199ZM16.2447 15.33L13.9557 9.28199L11.6247 15.33H16.2447Z" fill="#BEBEBE"/>
</svg>
